<svg xmlns="http://www.w3.org/2000/svg" version="1.1" xmlns:xlink="http://www.w3.org/1999/xlink" xmlns:svgjs="http://svgjs.dev/svgjs" width="1500" height="1500" viewBox="0 0 1500 1500"><rect width="1500" height="1500" fill="#35185a"></rect><g transform="matrix(0.6666666666666666,0,0,0.6666666666666666,249.39393939393938,438.5856950067477)"><svg viewBox="0 0 396 247" data-background-color="#35185a" preserveAspectRatio="xMidYMid meet" height="935" width="1500" xmlns="http://www.w3.org/2000/svg" xmlns:xlink="http://www.w3.org/1999/xlink"><g id="tight-bounds" transform="matrix(1,0,0,1,0.2400000000000091,-0.09999999999999432)"><svg viewBox="0 0 395.52 247.2" height="247.2" width="395.52"><g><svg></svg></g><g><svg viewBox="0 0 395.52 247.2" height="247.2" width="395.52"><mask id="eecfe22b-38f7-45b7-9a27-260ca9c6c01b"><rect width="640" height="400" fill="white"></rect><g transform="matrix(1,0,0,1,39.55200000000002,76.99849071358749)"><svg viewBox="0 0 316.41599999999994 93.20301857282502" height="93.20301857282502" width="316.41599999999994"><g><svg viewBox="0 0 316.41599999999994 93.20301857282502" height="93.20301857282502" width="316.41599999999994"><g><svg viewBox="0 0 316.41599999999994 93.20301857282502" height="93.20301857282502" width="316.41599999999994"><g><svg viewBox="0 0 316.41599999999994 93.20301857282502" height="93.20301857282502" width="316.41599999999994"><g id="SvgjsG1002"><svg viewBox="0 0 316.41599999999994 93.20301857282502" height="93.20301857282502" width="316.41599999999994" id="SvgjsSvg1001"><g><svg viewBox="0 0 316.41599999999994 93.20301857282502" height="93.20301857282502" width="316.41599999999994"><g transform="matrix(1,0,0,1,0,0)"><svg width="316.41599999999994" viewBox="-5.05 -41.75 154.44 46.2" height="93.20301857282502" data-palette-color="#a437db"><path d="M18.4-1Q17.15-0.8 15.65-0.55 14.15-0.3 12.95-0.1L12.95-0.1Q13.15-1.75 13.35-3.35L13.35-3.35Q13.5-4.75 13.63-6.15 13.75-7.55 13.85-8.55L13.85-8.55 9.5-8.55 7.5-1.35Q6.4-1.2 4.9-1.03 3.4-0.85 2.1-0.7L2.1-0.7Q0.5-0.5-1.05-0.3L-1.05-0.3Q0.95-6.95 2.9-13.4L2.9-13.4Q3.7-16.1 4.58-19.05 5.45-22 6.33-24.93 7.2-27.85 8-30.55 8.8-33.25 9.4-35.5L9.4-35.5Q12.8-35.75 16.32-36.1 19.85-36.45 23.2-37.05L23.2-37.05Q23.05-35.45 22.88-33.08 22.7-30.7 22.55-27.9 22.4-25.1 22.25-22.05 22.1-19 21.95-16.05L21.95-16.05Q21.7-9.15 21.4-1.4L21.4-1.4Q19.9-1.15 18.4-1L18.4-1ZM13.8-26.1L10.7-13.55Q10.9-13.55 11.43-13.58 11.95-13.6 12.53-13.63 13.1-13.65 13.6-13.68 14.1-13.7 14.3-13.75L14.3-13.75Q14.3-14.05 14.38-14.78 14.45-15.5 14.53-16.43 14.6-17.35 14.7-18.45 14.8-19.55 14.9-20.6L14.9-20.6Q15.1-23.15 15.4-26.1L15.4-26.1 15.7-30.45 14.95-30.4 13.8-26.1ZM29.2-1.45L21.9 0.25Q23.4-6.95 24.75-13.7L24.75-13.7Q25.25-16.6 25.82-19.7 26.4-22.8 26.9-25.83 27.4-28.85 27.8-31.63 28.2-34.4 28.4-36.65L28.4-36.65Q29.05-36.6 29.5-36.6 29.95-36.6 30.55-36.6L30.55-36.6Q31.25-36.6 32.25-36.63 33.25-36.65 34.25-36.7 35.25-36.75 36.4-36.8L36.4-36.8Q37.1-33.3 37.65-30.05L37.65-30.05Q38.2-27.2 38.77-24.2 39.35-21.2 39.8-19.1L39.8-19.1Q40-20.1 40.25-21.43 40.5-22.75 40.8-24.2 41.1-25.65 41.37-27.13 41.65-28.6 41.95-30.05L41.95-30.05Q42.65-33.3 43.4-36.75L43.4-36.75 49.5-37.5Q47.8-29.85 46.5-23L46.5-23Q45.9-20.05 45.32-17.03 44.75-14 44.25-11.23 43.75-8.45 43.4-6.08 43.05-3.7 42.85-2.1L42.85-2.1Q42.7-2.1 41.67-1.88 40.65-1.65 39.32-1.35 38-1.05 36.67-0.75 35.35-0.45 34.7-0.2L34.7-0.2Q34.4-4.2 34.05-7.8L34.05-7.8Q33.9-9.35 33.72-10.98 33.55-12.6 33.35-14.1 33.15-15.6 32.95-16.9 32.75-18.2 32.55-19.15L32.55-19.15Q32.4-18.2 32.15-16.95 31.9-15.7 31.65-14.3 31.4-12.9 31.15-11.38 30.9-9.85 30.6-8.45L30.6-8.45Q29.95-5.1 29.2-1.45L29.2-1.45ZM52.75-1Q52.3-1 50.97-0.88 49.65-0.75 48.25-0.58 46.85-0.4 45.72-0.25 44.6-0.1 44.5-0.05L44.5-0.05Q45-2.2 45.52-4.83 46.05-7.45 46.6-10.33 47.15-13.2 47.65-16.15 48.15-19.1 48.6-21.85L48.6-21.85Q49.65-28.25 50.7-35L50.7-35 58.5-36.25Q57.35-29.55 56.25-23.1L56.25-23.1Q55.8-20.35 55.32-17.4 54.85-14.45 54.37-11.55 53.9-8.65 53.5-5.93 53.1-3.2 52.75-1L52.75-1ZM61.09-0.85L52.84-0.3Q55.04-6.95 57.04-13.35L57.04-13.35Q57.89-16.05 58.79-19 59.69-21.95 60.59-24.85 61.49-27.75 62.27-30.45 63.04-33.15 63.64-35.45L63.64-35.45Q66.39-35.45 68.84-35.75 71.29-36.05 74.14-36.3L74.14-36.3Q73.99-35.2 73.82-33.83 73.64-32.45 73.42-30.95 73.19-29.45 72.94-27.85 72.69-26.25 72.34-23.75 71.99-21.25 71.39-17.5L71.39-17.5 72.04-17.5Q73.49-21.3 74.44-23.83 75.39-26.35 75.99-27.95 76.59-29.55 77.22-31.08 77.84-32.6 78.42-33.98 78.99-35.35 79.49-36.4L79.49-36.4Q80.74-36.5 81.84-36.65 82.94-36.8 84.04-36.98 85.14-37.15 86.27-37.33 87.39-37.5 88.74-37.75L88.74-37.75Q88.24-34.85 87.79-31.8 87.34-28.75 86.99-25.73 86.64-22.7 86.32-19.75 85.99-16.8 85.74-14.15L85.74-14.15Q85.14-7.95 84.69-2.05L84.69-2.05 75.99-0.5Q75.99-0.75 76.07-1.85 76.14-2.95 76.27-4.55 76.39-6.15 76.62-8.1 76.84-10.05 77.07-12 77.29-13.95 77.54-15.78 77.79-17.6 78.04-18.9L78.04-18.9 77.59-18.9Q76.89-16.8 76.04-14.48 75.19-12.15 74.32-9.75 73.44-7.35 72.59-5.05 71.74-2.75 71.09-0.65L71.09-0.65Q69.34-0.6 68.09-0.53 66.84-0.45 65.19-0.35L65.19-0.35 66.79-18.9 66.04-18.9Q65.94-18.25 65.54-16.73 65.14-15.2 64.62-13.23 64.09-11.25 63.49-9.13 62.89-7 62.37-5.18 61.84-3.35 61.49-2.18 61.14-1 61.09-0.85L61.09-0.85ZM101.84-2.45L85.69 0.05 92.24-35.5 108.04-36.85Q107.69-35.75 107.44-34.6L107.44-34.6Q107.19-33.65 106.97-32.63 106.74-31.6 106.59-30.8L106.59-30.8Q106.09-30.75 105.17-30.73 104.24-30.7 103.19-30.68 102.14-30.65 101.07-30.65 99.99-30.65 99.19-30.65L99.19-30.65 97.44-21.7Q98.99-21.8 100.34-21.85L100.34-21.85Q101.44-21.9 102.59-21.9 103.74-21.9 104.29-21.95L104.29-21.95Q104.09-20.55 103.92-19.2 103.74-17.85 103.49-16.45L103.49-16.45Q102.99-16.4 101.87-16.38 100.74-16.35 99.59-16.3L99.59-16.3Q98.29-16.25 96.74-16.2L96.74-16.2 95.04-7 102.34-8.15 101.84-2.45ZM115.84-1.35L106.84 0.05Q107.99-5.45 109.04-10.8L109.04-10.8Q109.49-13.05 109.94-15.5 110.39-17.95 110.81-20.33 111.24-22.7 111.56-24.93 111.89-27.15 112.14-29L112.14-29Q110.99-29.15 109.81-29.1 108.64-29.05 107.49-29.4L107.49-29.4Q107.54-30.2 107.54-31.25 107.54-32.3 107.59-33.35L107.59-33.35Q107.64-34.5 107.69-35.8L107.69-35.8Q108.99-35.7 110.29-35.65 111.59-35.6 112.89-35.6L112.89-35.6Q115.44-35.6 117.81-35.73 120.19-35.85 122.21-36.02 124.24-36.2 126.19-36.45L126.19-36.45 125.64-33.75Q125.39-32.6 125.16-31.4 124.94-30.2 124.74-29.35L124.74-29.35Q123.64-29.05 122.51-28.93 121.39-28.8 120.29-28.6L120.29-28.6Q119.94-26.9 119.54-24.83 119.14-22.75 118.76-20.53 118.39-18.3 118.04-16 117.69-13.7 117.34-11.6L117.34-11.6Q116.54-6.65 115.84-1.35L115.84-1.35ZM136.34-1.5L123.39 0.45Q124.04-6.55 124.59-13.3L124.59-13.3Q124.84-16.1 125.06-19.2 125.29-22.3 125.46-25.33 125.64-28.35 125.74-31.18 125.84-34 125.89-36.35L125.89-36.35Q127.09-36.35 128.46-36.4 129.84-36.45 130.96-36.5 132.09-36.55 132.89-36.63 133.69-36.7 133.69-36.7L133.69-36.7Q133.14-30.9 132.74-27.18 132.34-23.45 132.11-21.13 131.89-18.8 131.71-16.65 131.54-14.5 131.34-12.65 131.14-10.8 130.99-9.5L130.99-9.5 131.89-9.5 137.49-36.1Q138.84-36.15 140.24-36.25L140.24-36.25Q141.49-36.35 142.86-36.4 144.24-36.45 145.39-36.6L145.39-36.6Q144.69-34.4 143.96-31.75 143.24-29.1 142.46-26.25 141.69-23.4 140.96-20.45 140.24-17.5 139.54-14.75L139.54-14.75Q137.94-8.3 136.34-1.5L136.34-1.5Z" opacity="1" transform="matrix(1,0,0,1,0,0)" fill="black" class="wordmark-text-0" id="SvgjsPath1000" stroke-width="7" stroke="black" stroke-linejoin="round"></path></svg></g></svg></g></svg></g></svg></g><g></g></svg></g></svg></g></svg></g></mask><g transform="matrix(1,0,0,1,39.55200000000002,76.99849071358749)"><svg viewBox="0 0 316.41599999999994 93.20301857282502" height="93.20301857282502" width="316.41599999999994"><g><svg viewBox="0 0 316.41599999999994 93.20301857282502" height="93.20301857282502" width="316.41599999999994"><g><svg viewBox="0 0 316.41599999999994 93.20301857282502" height="93.20301857282502" width="316.41599999999994"><g><svg viewBox="0 0 316.41599999999994 93.20301857282502" height="93.20301857282502" width="316.41599999999994"><g id="textblocktransform"><svg viewBox="0 0 316.41599999999994 93.20301857282502" height="93.20301857282502" width="316.41599999999994" id="textblock"><g><svg viewBox="0 0 316.41599999999994 93.20301857282502" height="93.20301857282502" width="316.41599999999994"><g transform="matrix(1,0,0,1,0,0)"><svg width="316.41599999999994" viewBox="-5.05 -41.75 154.44 46.2" height="93.20301857282502" data-palette-color="#a437db"><path d="M18.4-1Q17.15-0.8 15.65-0.55 14.15-0.3 12.95-0.1L12.95-0.1Q13.15-1.75 13.35-3.35L13.35-3.35Q13.5-4.75 13.63-6.15 13.75-7.55 13.85-8.55L13.85-8.55 9.5-8.55 7.5-1.35Q6.4-1.2 4.9-1.03 3.4-0.85 2.1-0.7L2.1-0.7Q0.5-0.5-1.05-0.3L-1.05-0.3Q0.95-6.95 2.9-13.4L2.9-13.4Q3.7-16.1 4.58-19.05 5.45-22 6.33-24.93 7.2-27.85 8-30.55 8.8-33.25 9.4-35.5L9.4-35.5Q12.8-35.75 16.32-36.1 19.85-36.45 23.2-37.05L23.2-37.05Q23.05-35.45 22.88-33.08 22.7-30.7 22.55-27.9 22.4-25.1 22.25-22.05 22.1-19 21.95-16.05L21.95-16.05Q21.7-9.15 21.4-1.4L21.4-1.4Q19.9-1.15 18.4-1L18.4-1ZM13.8-26.1L10.7-13.55Q10.9-13.55 11.43-13.58 11.95-13.6 12.53-13.63 13.1-13.65 13.6-13.68 14.1-13.7 14.3-13.75L14.3-13.75Q14.3-14.05 14.38-14.78 14.45-15.5 14.53-16.43 14.6-17.35 14.7-18.45 14.8-19.55 14.9-20.6L14.9-20.6Q15.1-23.15 15.4-26.1L15.4-26.1 15.7-30.45 14.95-30.4 13.8-26.1ZM29.2-1.45L21.9 0.25Q23.4-6.95 24.75-13.7L24.75-13.7Q25.25-16.6 25.82-19.7 26.4-22.8 26.9-25.83 27.4-28.85 27.8-31.63 28.2-34.4 28.4-36.65L28.4-36.65Q29.05-36.6 29.5-36.6 29.95-36.6 30.55-36.6L30.55-36.6Q31.25-36.6 32.25-36.63 33.25-36.65 34.25-36.7 35.25-36.75 36.4-36.8L36.4-36.8Q37.1-33.3 37.65-30.05L37.65-30.05Q38.2-27.2 38.77-24.2 39.35-21.2 39.8-19.1L39.8-19.1Q40-20.1 40.25-21.43 40.5-22.75 40.8-24.2 41.1-25.65 41.37-27.13 41.65-28.6 41.95-30.05L41.95-30.05Q42.65-33.3 43.4-36.75L43.4-36.75 49.5-37.5Q47.8-29.85 46.5-23L46.5-23Q45.9-20.05 45.32-17.03 44.75-14 44.25-11.23 43.75-8.45 43.4-6.08 43.05-3.7 42.85-2.1L42.85-2.1Q42.7-2.1 41.67-1.88 40.65-1.65 39.32-1.35 38-1.05 36.67-0.75 35.35-0.45 34.7-0.2L34.7-0.2Q34.4-4.2 34.05-7.8L34.05-7.8Q33.9-9.35 33.72-10.98 33.55-12.6 33.35-14.1 33.15-15.6 32.95-16.9 32.75-18.2 32.55-19.15L32.55-19.15Q32.4-18.2 32.15-16.95 31.9-15.7 31.65-14.3 31.4-12.9 31.15-11.38 30.9-9.85 30.6-8.45L30.6-8.45Q29.95-5.1 29.2-1.45L29.2-1.45ZM52.75-1Q52.3-1 50.97-0.88 49.65-0.75 48.25-0.58 46.85-0.4 45.72-0.25 44.6-0.1 44.5-0.05L44.5-0.05Q45-2.2 45.52-4.83 46.05-7.45 46.6-10.33 47.15-13.2 47.65-16.15 48.15-19.1 48.6-21.85L48.6-21.85Q49.65-28.25 50.7-35L50.7-35 58.5-36.25Q57.35-29.55 56.25-23.1L56.25-23.1Q55.8-20.35 55.32-17.4 54.85-14.45 54.37-11.55 53.9-8.65 53.5-5.93 53.1-3.2 52.75-1L52.75-1ZM61.09-0.85L52.84-0.3Q55.04-6.95 57.04-13.35L57.04-13.35Q57.89-16.05 58.79-19 59.69-21.95 60.59-24.85 61.49-27.75 62.27-30.45 63.04-33.15 63.64-35.45L63.64-35.45Q66.39-35.45 68.84-35.75 71.29-36.05 74.14-36.3L74.14-36.3Q73.99-35.2 73.82-33.83 73.64-32.45 73.42-30.95 73.19-29.45 72.94-27.85 72.69-26.25 72.34-23.75 71.99-21.25 71.39-17.5L71.39-17.5 72.04-17.5Q73.49-21.3 74.44-23.83 75.39-26.35 75.99-27.95 76.59-29.55 77.22-31.08 77.84-32.6 78.42-33.98 78.99-35.35 79.49-36.4L79.49-36.4Q80.74-36.5 81.84-36.65 82.94-36.8 84.04-36.98 85.14-37.15 86.27-37.33 87.39-37.5 88.74-37.75L88.74-37.75Q88.24-34.85 87.79-31.8 87.34-28.75 86.99-25.73 86.64-22.7 86.32-19.75 85.99-16.8 85.74-14.15L85.74-14.15Q85.14-7.95 84.69-2.05L84.69-2.05 75.99-0.5Q75.99-0.75 76.07-1.85 76.14-2.95 76.27-4.55 76.39-6.15 76.62-8.1 76.84-10.05 77.07-12 77.29-13.95 77.54-15.78 77.79-17.6 78.04-18.9L78.04-18.9 77.59-18.9Q76.89-16.8 76.04-14.48 75.19-12.15 74.32-9.75 73.44-7.35 72.59-5.05 71.74-2.75 71.09-0.65L71.09-0.65Q69.34-0.6 68.09-0.53 66.84-0.45 65.19-0.35L65.19-0.35 66.79-18.9 66.04-18.9Q65.94-18.25 65.54-16.73 65.14-15.2 64.62-13.23 64.09-11.25 63.49-9.13 62.89-7 62.37-5.18 61.84-3.35 61.49-2.18 61.14-1 61.09-0.85L61.09-0.85ZM101.84-2.45L85.69 0.05 92.24-35.5 108.04-36.85Q107.69-35.75 107.44-34.6L107.44-34.6Q107.19-33.65 106.97-32.63 106.74-31.6 106.59-30.8L106.59-30.8Q106.09-30.75 105.17-30.73 104.24-30.7 103.19-30.68 102.14-30.65 101.07-30.65 99.99-30.65 99.19-30.65L99.19-30.65 97.44-21.7Q98.99-21.8 100.34-21.85L100.34-21.85Q101.44-21.9 102.59-21.9 103.74-21.9 104.29-21.95L104.29-21.95Q104.09-20.55 103.92-19.2 103.74-17.85 103.49-16.45L103.49-16.45Q102.99-16.4 101.87-16.38 100.74-16.35 99.59-16.3L99.59-16.3Q98.29-16.25 96.74-16.2L96.74-16.2 95.04-7 102.34-8.15 101.84-2.45ZM115.84-1.35L106.84 0.05Q107.99-5.45 109.04-10.8L109.04-10.8Q109.49-13.05 109.94-15.5 110.39-17.95 110.81-20.33 111.24-22.7 111.56-24.93 111.89-27.15 112.14-29L112.14-29Q110.99-29.15 109.81-29.1 108.64-29.05 107.49-29.4L107.49-29.4Q107.54-30.2 107.54-31.25 107.54-32.3 107.59-33.35L107.59-33.35Q107.64-34.5 107.69-35.8L107.69-35.8Q108.99-35.7 110.29-35.65 111.59-35.6 112.89-35.6L112.89-35.6Q115.44-35.6 117.81-35.73 120.19-35.85 122.21-36.02 124.24-36.2 126.19-36.45L126.19-36.45 125.64-33.75Q125.39-32.6 125.16-31.4 124.94-30.2 124.74-29.35L124.74-29.35Q123.64-29.05 122.51-28.93 121.39-28.8 120.29-28.6L120.29-28.6Q119.94-26.9 119.54-24.83 119.14-22.75 118.76-20.53 118.39-18.3 118.04-16 117.69-13.7 117.34-11.6L117.34-11.6Q116.54-6.65 115.84-1.35L115.84-1.35ZM136.34-1.5L123.39 0.45Q124.04-6.55 124.59-13.3L124.59-13.3Q124.84-16.1 125.06-19.2 125.29-22.3 125.46-25.33 125.64-28.35 125.74-31.18 125.84-34 125.89-36.35L125.89-36.35Q127.09-36.35 128.46-36.4 129.84-36.45 130.96-36.5 132.09-36.55 132.89-36.63 133.69-36.7 133.69-36.7L133.69-36.7Q133.14-30.9 132.74-27.18 132.34-23.45 132.11-21.13 131.89-18.8 131.71-16.65 131.54-14.5 131.34-12.65 131.14-10.8 130.99-9.5L130.99-9.5 131.89-9.5 137.49-36.1Q138.84-36.15 140.24-36.25L140.24-36.25Q141.49-36.35 142.86-36.4 144.24-36.45 145.39-36.6L145.39-36.6Q144.69-34.4 143.96-31.75 143.24-29.1 142.46-26.25 141.69-23.4 140.96-20.45 140.24-17.5 139.54-14.75L139.54-14.75Q137.94-8.3 136.34-1.5L136.34-1.5Z" opacity="1" transform="matrix(1,0,0,1,0,0)" fill="#a437db" class="wordmark-text-0" data-fill-palette-color="primary" id="text-0"></path></svg></g></svg></g></svg></g></svg></g><g></g></svg></g></svg></g></svg></g><g mask="url(#eecfe22b-38f7-45b7-9a27-260ca9c6c01b)"><g transform="matrix(3.447742516064624, 0, 0, 3.447742516064624, 42.96325651373053, 1)"><svg xmlns="http://www.w3.org/2000/svg" xmlns:xlink="http://www.w3.org/1999/xlink" version="1.1" x="0" y="0" viewBox="5.102 14.441 89.79599999999999 71.119" enable-background="new 0 0 100 100" xml:space="preserve" height="71.119" width="89.79599999999999" class="icon-none" data-fill-palette-color="accent" id="none"><path d="M76.075 14.441v5.246H26.234v-5.246H5.102v71.119h21.132v-5.028h49.841v5.028h18.823V14.441H76.075zM17.927 79.584h-4.372v-4.372h4.372V79.584zM17.927 70.476h-4.372v-4.372h4.372V70.476zM17.927 61.367h-4.372v-4.372h4.372V61.367zM17.927 52.259h-4.372v-4.372h4.372V52.259zM17.927 43.15h-4.372v-4.372h4.372V43.15zM17.927 34.042h-4.372V29.67h4.372V34.042zM17.927 24.934h-4.372v-4.372h4.372V24.934zM76.075 74.338H26.234v-48.53h49.841V74.338zM88.098 79.584h-4.372v-4.372h4.372V79.584zM88.098 70.476h-4.372v-4.372h4.372V70.476zM88.098 61.367h-4.372v-4.372h4.372V61.367zM88.098 52.259h-4.372v-4.372h4.372V52.259zM88.098 43.15h-4.372v-4.372h4.372V43.15zM88.098 34.042h-4.372V29.67h4.372V34.042zM88.098 24.934h-4.372v-4.372h4.372V24.934z" fill="#b19dd0" data-fill-palette-color="accent"></path></svg></g></g></svg></g><defs></defs></svg><rect width="395.52" height="247.2" fill="none" stroke="none" visibility="hidden"></rect></g></svg></g></svg>